<svg xmlns="http://www.w3.org/2000/svg" viewBox="0 0 100 100">
  <defs>
    <!-- rx,ry angle large-arc?,clockwise? x,y -->
    <svg xmlns="http://www.w3.org/2000/svg" viewBox="-50 -50 100 100" id="crescent">
      <circle x="0" y="0" r="50" fill="#eeeeee" />
      <path fill="#111133" d="
        M 0,-49
        A 49,49 0 1,0 0,49
        A 60,60 0 0,0 0,-49
        z
      " />
    </svg>
    <svg xmlns="http://www.w3.org/2000/svg" viewBox="-50 -50 100 100" id="gibbous">
      <circle x="0" y="0" r="50" fill="#eeeeee" />
      <path fill="#111133" d="
        M 0,-49
        A 49,49 0 1,0 0,49
        A 60,60 0 0,1 0,-49
        z
      " />
    </svg>
    <svg xmlns="http://www.w3.org/2000/svg" viewBox="-50 -50 100 100" id="half">
      <circle x="0" y="0" r="50" fill="#eeeeee" />
      <path fill="#111133" d="
        M 0,-49
        A 49,49 0 1,0 0,49
        z
      " />
    </svg>
  </defs>
  <rect x="0" y="0" width="100" height="100" fill="#111133" />
  <path fill="#eeeeee" d="
    M 0,55
    a 100,100 0 0,1 100,0
    v 0,-1
    a 100,100 0 0,0 -100,0
    z
  " />
  <use
    href="#crescent"
    x="16" y="48"
    width="20" height="20"
    transform="translate(-10,-10)"
  />
  <use
    href="#half"
    x="50" y="42"
    width="30" height="30"
    transform="translate(-15,-15)"
  />
  <use
    href="#gibbous"
    x="84" y="48"
    width="20" height="20"
    transform="translate(-10,-10)"
  />
</svg>
